:FULLY-SPECIFIED
:FORCE-ALL-JOINTS-BE-3DOF
:DEGREES
1
root 6.24314 16.836 -28.1378 9.0217 -2.52979 -3.05774
lfemur -20.3712 2.30257 -19.9954
ltibia 35.927 0 0
lfoot -38.654 3.93715 0
ltoes 38.9541 0 0
rfemur -19.4747 0.22019 19.5256
rtibia 36.0342 0 0
rfoot -30.3779 -10.4967 0
rtoes 21.4483 0 0
lowerback -2.05144 3.66971 -5.03766
upperback -2.66728 5.00355 3.49279
thorax -2.36397 2.67023 6.42441
lowerneck -9.84699 -2.36864 1.94815
upperneck -1.37933 -3.32542 -1.65382
head 1.16433 -1.69823 -0.975663
lclavicle -1.65488e-014 -3.69739e-014 0
lhumerus -41.7253 -10.8128 99.8312
lradius 34.5094 0 0
lwrist 2.17521 0 0
lhand -10.5949 9.65639 0
lfingers 7.12502 0 0
lthumb 15.4107 39.062 0
rclavicle -1.65488e-014 -3.69739e-014 0
rhumerus -43.273 -4.86223 -84.2703
rradius 40.4763 0 0
rwrist 9.89469 0 0
rhand -23.7965 -22.476 0
rfingers 7.12502 0 0
rthumb 2.67393 -52.439 0
2
root 6.2359 16.8364 -28.1376 9.05868 -2.47407 -3.02982
lfemur -20.4335 2.36022 -19.9999
ltibia 35.9543 0 0
lfoot -38.5373 3.81846 0
ltoes 38.9022 0 0
rfemur -19.4382 0.255399 19.522
rtibia 35.9276 0 0
rfoot -30.328 -10.6257 0
rtoes 21.0629 0 0
lowerback -2.12349 3.63411 -4.92006
upperback -2.64725 4.95306 3.41089
thorax -2.28656 2.64169 6.27746
lowerneck -9.84385 -2.35536 1.96536
upperneck -1.42865 -3.30954 -1.58384
head 1.14893 -1.6897 -0.955658
lclavicle -1.67758e-014 -3.63503e-014 0
lhumerus -41.7149 -10.8794 99.7461
lradius 34.6605 0 0
lwrist 2.27921 0 0
lhand -10.6058 9.52691 0
lfingers 7.12502 0 0
lthumb 15.4002 38.9333 0
rclavicle -1.67758e-014 -3.63503e-014 0
rhumerus -43.2104 -4.83369 -84.4131
rradius 40.4702 0 0
rwrist 9.87745 0 0
rhand -23.8371 -22.4523 0
rfingers 7.12502 0 0
rthumb 2.63467 -52.4156 0
3
root 6.22866 16.8369 -28.1374 9.09566 -2.41835 -3.00191
lfemur -20.4957 2.41787 -20.0044
ltibia 35.9815 0 0
lfoot -38.4205 3.69977 0
ltoes 38.8504 0 0
rfemur -19.4016 0.290609 19.5185
rtibia 35.8209 0 0
rfoot -30.2781 -10.7547 0
rtoes 20.6774 0 0
lowerback -2.19555 3.59851 -4.80246
upperback -2.62722 4.90257 3.32898
thorax -2.20916 2.61315 6.13051
lowerneck -9.84072 -2.34209 1.98258
upperneck -1.47797 -3.29366 -1.51386
head 1.13354 -1.68117 -0.935654
lclavicle -1.70029e-014 -3.57266e-014 0
lhumerus -41.7044 -10.9461 99.6609
lradius 34.8116 0 0
lwrist 2.38322 0 0
lhand -10.6166 9.39744 0
lfingers 7.12502 0 0
lthumb 15.3898 38.8046 0
rclavicle -1.70029e-014 -3.57266e-014 0
rhumerus -43.1478 -4.80515 -84.5559
rradius 40.4641 0 0
rwrist 9.86021 0 0
rhand -23.8778 -22.4286 0
rfingers 7.12502 0 0
rthumb 2.59542 -52.3922 0
4
root 6.22142 16.8373 -28.1371 9.13265 -2.36263 -2.97399
lfemur -20.558 2.47553 -20.0089
ltibia 36.0088 0 0
lfoot -38.3038 3.58108 0
ltoes 38.7985 0 0
rfemur -19.3651 0.325818 19.5149
rtibia 35.7143 0 0
rfoot -30.2281 -10.8838 0
rtoes 20.292 0 0
lowerback -2.2676 3.56291 -4.68486
upperback -2.60719 4.85208 3.24708
thorax -2.13175 2.58461 5.98355
lowerneck -9.83758 -2.32881 1.99979
upperneck -1.52728 -3.27777 -1.44388
head 1.11814 -1.67264 -0.915649
lclavicle -1.72299e-014 -3.5103e-014 0
lhumerus -41.694 -11.0127 99.5758
lradius 34.9627 0 0
lwrist 2.48722 0 0
lhand -10.6275 9.26796 0
lfingers 7.12502 0 0
lthumb 15.3793 38.6759 0
rclavicle -1.72299e-014 -3.5103e-014 0
rhumerus -43.0851 -4.77661 -84.6986
rradius 40.458 0 0
rwrist 9.84297 0 0
rhand -23.9184 -22.4048 0
rfingers 7.12502 0 0
rthumb 2.55616 -52.3688 0
